<svg width="24" height="24" viewBox="0 0 24 24" fill="none" xmlns="http://www.w3.org/2000/svg">
<path d="M2.7024 9.6C2.50099 10.3841 2.39938 11.1905 2.4 12C2.4 12.828 2.5056 13.632 2.7024 14.4H6.12C5.95822 12.8041 5.95822 11.1959 6.12 9.6H2.7024ZM3.684 7.2H6.4992C6.8184 5.7396 7.2792 4.4316 7.8444 3.3432C6.10222 4.1825 4.65266 5.52628 3.684 7.2ZM21.2976 9.6H17.88C18.0418 11.1959 18.0418 12.8041 17.88 14.4H21.2976C21.4944 13.632 21.6 12.828 21.6 12C21.6 11.172 21.4944 10.368 21.2976 9.6ZM20.316 7.2C19.3473 5.52628 17.8978 4.1825 16.1556 3.3432C16.722 4.4316 17.1816 5.7396 17.5008 7.2H20.316ZM8.5344 9.6C8.44449 10.3968 8.39962 11.1981 8.4 12C8.4 12.822 8.4456 13.626 8.5344 14.4H15.4656C15.6463 12.8051 15.6463 11.1949 15.4656 9.6H8.5344ZM8.964 7.2H15.036C14.8176 6.29796 14.5026 5.42209 14.0964 4.5876C13.3428 3.0816 12.5364 2.4 12 2.4C11.4624 2.4 10.6572 3.0816 9.9036 4.5876C9.5256 5.346 9.2076 6.228 8.964 7.2ZM3.684 16.8C4.65266 18.4737 6.10222 19.8175 7.8444 20.6568C7.278 19.5684 6.8184 18.2604 6.4992 16.8H3.684ZM20.316 16.8H17.5008C17.1816 18.2604 16.7208 19.5684 16.1556 20.6568C17.8978 19.8175 19.3473 18.4737 20.316 16.8ZM8.964 16.8C9.2076 17.772 9.5256 18.654 9.9036 19.4124C10.6572 20.9184 11.4636 21.6 12 21.6C12.5376 21.6 13.3428 20.9184 14.0964 19.4124C14.4744 18.654 14.7924 17.772 15.036 16.8H8.964ZM12 24C5.3724 24 0 18.6276 0 12C0 5.3724 5.3724 0 12 0C18.6276 0 24 5.3724 24 12C24 18.6276 18.6276 24 12 24Z" fill="#BDBDBD"/>
</svg>
