<svg width="16" height="16" viewBox="0 0 16 16" fill="none" xmlns="http://www.w3.org/2000/svg">
<path d="M7.3335 9.99998V8.66665C6.80306 8.66665 6.29436 8.45593 5.91928 8.08086C5.54421 7.70579 5.3335 7.19708 5.3335 6.66665C5.3335 6.13621 5.54421 5.62751 5.91928 5.25243C6.29436 4.87736 6.80306 4.66665 7.3335 4.66665V3.99998C7.3335 3.82317 7.40373 3.6536 7.52876 3.52858C7.65378 3.40355 7.82335 3.33331 8.00016 3.33331C8.17697 3.33331 8.34654 3.40355 8.47157 3.52858C8.59659 3.6536 8.66683 3.82317 8.66683 3.99998V4.66665H8.6815C9.20804 4.66665 9.71302 4.87581 10.0853 5.24814C10.4577 5.62046 10.6668 6.12544 10.6668 6.65198C10.6668 6.82879 10.5966 6.99836 10.4716 7.12338C10.3465 7.24841 10.177 7.31865 10.0002 7.31865C9.82335 7.31865 9.65378 7.24841 9.52876 7.12338C9.40373 6.99836 9.3335 6.82879 9.3335 6.65198C9.3335 6.47906 9.2648 6.31322 9.14253 6.19095C9.02026 6.06867 8.85442 5.99998 8.6815 5.99998H8.66683V7.33331C9.19726 7.33331 9.70597 7.54403 10.081 7.9191C10.4561 8.29417 10.6668 8.80288 10.6668 9.33331C10.6668 9.86375 10.4561 10.3725 10.081 10.7475C9.70597 11.1226 9.19726 11.3333 8.66683 11.3333V12C8.66683 12.1768 8.59659 12.3464 8.47157 12.4714C8.34654 12.5964 8.17697 12.6666 8.00016 12.6666C7.82335 12.6666 7.65378 12.5964 7.52876 12.4714C7.40373 12.3464 7.3335 12.1768 7.3335 12V11.3333H7.2995C6.77808 11.3333 6.27802 11.1262 5.90932 10.7575C5.54063 10.3888 5.3335 9.88873 5.3335 9.36731C5.3335 9.1905 5.40373 9.02093 5.52876 8.89591C5.65378 8.77088 5.82335 8.70065 6.00016 8.70065C6.17697 8.70065 6.34654 8.77088 6.47157 8.89591C6.59659 9.02093 6.66683 9.1905 6.66683 9.36731C6.66701 9.53505 6.73372 9.69587 6.85233 9.81448C6.97094 9.93309 7.13176 9.9998 7.2995 9.99998H7.3335ZM8.66683 9.99998C8.84364 9.99998 9.01321 9.92974 9.13823 9.80472C9.26326 9.67969 9.3335 9.51012 9.3335 9.33331C9.3335 9.1565 9.26326 8.98693 9.13823 8.86191C9.01321 8.73688 8.84364 8.66665 8.66683 8.66665V9.99998ZM7.3335 5.99998C7.15669 5.99998 6.98712 6.07022 6.86209 6.19524C6.73707 6.32027 6.66683 6.48984 6.66683 6.66665C6.66683 6.84346 6.73707 7.01303 6.86209 7.13805C6.98712 7.26308 7.15669 7.33331 7.3335 7.33331V5.99998ZM8.00016 14.6666C4.31816 14.6666 1.3335 11.682 1.3335 7.99998C1.3335 4.31798 4.31816 1.33331 8.00016 1.33331C11.6822 1.33331 14.6668 4.31798 14.6668 7.99998C14.6668 11.682 11.6822 14.6666 8.00016 14.6666ZM8.00016 13.3333C9.41465 13.3333 10.7712 12.7714 11.7714 11.7712C12.7716 10.771 13.3335 9.41447 13.3335 7.99998C13.3335 6.58549 12.7716 5.22894 11.7714 4.22874C10.7712 3.22855 9.41465 2.66665 8.00016 2.66665C6.58567 2.66665 5.22912 3.22855 4.22893 4.22874C3.22873 5.22894 2.66683 6.58549 2.66683 7.99998C2.66683 9.41447 3.22873 10.771 4.22893 11.7712C5.22912 12.7714 6.58567 13.3333 8.00016 13.3333Z" fill="#02B5C4"/>
</svg>
