<svg width="16" height="16" viewBox="0 0 16 16" fill="none" xmlns="http://www.w3.org/2000/svg">
<path d="M1.88817 12.6666C1.52111 11.8256 1.33225 10.9176 1.3335 9.99998C1.3335 6.31798 4.31817 3.33331 8.00017 3.33331C11.6822 3.33331 14.6668 6.31798 14.6668 9.99998C14.6681 10.9176 14.4792 11.8256 14.1122 12.6666H1.88817ZM13.1655 11.3333C13.3678 10.5455 13.3873 9.72183 13.2224 8.92533C13.0575 8.12883 12.7126 7.3806 12.2141 6.73788C11.7156 6.09515 11.0767 5.57496 10.3463 5.21711C9.61584 4.85925 8.81322 4.6732 7.99984 4.6732C7.18645 4.6732 6.38383 4.85925 5.65339 5.21711C4.92295 5.57496 4.28404 6.09515 3.78554 6.73788C3.28703 7.3806 2.94214 8.12883 2.77725 8.92533C2.61235 9.72183 2.63182 10.5455 2.83417 11.3333H13.1655ZM8.00017 6.66665C7.82336 6.66665 7.65379 6.59641 7.52876 6.47138C7.40374 6.34636 7.3335 6.17679 7.3335 5.99998C7.3335 5.82317 7.40374 5.6536 7.52876 5.52858C7.65379 5.40355 7.82336 5.33331 8.00017 5.33331C8.17698 5.33331 8.34655 5.40355 8.47157 5.52858C8.5966 5.6536 8.66684 5.82317 8.66684 5.99998C8.66684 6.17679 8.5966 6.34636 8.47157 6.47138C8.34655 6.59641 8.17698 6.66665 8.00017 6.66665ZM4.66684 9.33331C4.49002 9.33331 4.32046 9.26308 4.19543 9.13805C4.07041 9.01303 4.00017 8.84346 4.00017 8.66665C4.00017 8.48984 4.07041 8.32027 4.19543 8.19524C4.32046 8.07022 4.49002 7.99998 4.66684 7.99998C4.84365 7.99998 5.01322 8.07022 5.13824 8.19524C5.26326 8.32027 5.3335 8.48984 5.3335 8.66665C5.3335 8.84346 5.26326 9.01303 5.13824 9.13805C5.01322 9.26308 4.84365 9.33331 4.66684 9.33331ZM11.3335 9.33331C11.1567 9.33331 10.9871 9.26308 10.8621 9.13805C10.7371 9.01303 10.6668 8.84346 10.6668 8.66665C10.6668 8.48984 10.7371 8.32027 10.8621 8.19524C10.9871 8.07022 11.1567 7.99998 11.3335 7.99998C11.5103 7.99998 11.6799 8.07022 11.8049 8.19524C11.9299 8.32027 12.0002 8.48984 12.0002 8.66665C12.0002 8.84346 11.9299 9.01303 11.8049 9.13805C11.6799 9.26308 11.5103 9.33331 11.3335 9.33331ZM8.00017 7.33331C8.17698 7.33331 8.34655 7.40355 8.47157 7.52858C8.5966 7.6536 8.66684 7.82317 8.66684 7.99998V9.99998C8.66684 10.1768 8.5966 10.3464 8.47157 10.4714C8.34655 10.5964 8.17698 10.6666 8.00017 10.6666C7.82336 10.6666 7.65379 10.5964 7.52876 10.4714C7.40374 10.3464 7.3335 10.1768 7.3335 9.99998V7.99998C7.3335 7.82317 7.40374 7.6536 7.52876 7.52858C7.65379 7.40355 7.82336 7.33331 8.00017 7.33331Z" fill="#02B5C4"/>
</svg>
