<svg width="24" height="24" viewBox="0 0 24 24" fill="none" xmlns="http://www.w3.org/2000/svg">
<circle cx="12" cy="12" r="12" fill="#26234E"/>
<path d="M12 2L12.2245 2.69098H12.9511L12.3633 3.11803L12.5878 3.80902L12 3.38197L11.4122 3.80902L11.6367 3.11803L11.0489 2.69098H11.7755L12 2Z" fill="#FBB33B"/>
<path d="M4 11L4.22451 11.691H4.95106L4.36327 12.118L4.58779 12.809L4 12.382L3.41221 12.809L3.63673 12.118L3.04894 11.691H3.77549L4 11Z" fill="#FBB33B"/>
<path d="M5 7L5.22451 7.69098H5.95106L5.36327 8.11803L5.58779 8.80902L5 8.38197L4.41221 8.80902L4.63673 8.11803L4.04894 7.69098H4.77549L5 7Z" fill="#FBB33B"/>
<path d="M5 15L5.22451 15.691H5.95106L5.36327 16.118L5.58779 16.809L5 16.382L4.41221 16.809L4.63673 16.118L4.04894 15.691H4.77549L5 15Z" fill="#FBB33B"/>
<path d="M19 7L19.2245 7.69098H19.9511L19.3633 8.11803L19.5878 8.80902L19 8.38197L18.4122 8.80902L18.6367 8.11803L18.0489 7.69098H18.7755L19 7Z" fill="#FBB33B"/>
<path d="M19 15L19.2245 15.691H19.9511L19.3633 16.118L19.5878 16.809L19 16.382L18.4122 16.809L18.6367 16.118L18.0489 15.691H18.7755L19 15Z" fill="#FBB33B"/>
<path d="M16 18L16.2245 18.691H16.9511L16.3633 19.118L16.5878 19.809L16 19.382L15.4122 19.809L15.6367 19.118L15.0489 18.691H15.7755L16 18Z" fill="#FBB33B"/>
<path d="M8 4L8.22451 4.69098H8.95106L8.36327 5.11803L8.58779 5.80902L8 5.38197L7.41221 5.80902L7.63673 5.11803L7.04894 4.69098H7.77549L8 4Z" fill="#FBB33B"/>
<path d="M8 18L8.22451 18.691H8.95106L8.36327 19.118L8.58779 19.809L8 19.382L7.41221 19.809L7.63673 19.118L7.04894 18.691H7.77549L8 18Z" fill="#FBB33B"/>
<path d="M16 4L16.2245 4.69098H16.9511L16.3633 5.11803L16.5878 5.80902L16 5.38197L15.4122 5.80902L15.6367 5.11803L15.0489 4.69098H15.7755L16 4Z" fill="#FBB33B"/>
<path d="M19.9999 11L20.2244 11.691H20.9509L20.3632 12.118L20.5877 12.809L19.9999 12.382L19.4121 12.809L19.6366 12.118L19.0488 11.691H19.7754L19.9999 11Z" fill="#FBB33B"/>
<path d="M12 20L12.2245 20.691H12.9511L12.3633 21.118L12.5878 21.809L12 21.382L11.4122 21.809L11.6367 21.118L11.0489 20.691H11.7755L12 20Z" fill="#FBB33B"/>
</svg>