<svg width="23" height="27" viewBox="0 0 23 27" fill="none" xmlns="http://www.w3.org/2000/svg">
<g filter="url(#filter0_d)">
<path fill-rule="evenodd" clip-rule="evenodd" d="M14.0264 13.0881C14.0274 13.0861 14.0294 13.0831 14.0304 13.0811L14.0524 13.1631L14.0264 13.0881ZM15.5214 18.5601C15.5214 18.4561 15.5544 18.3551 15.6134 18.2701L16.4614 17.0761C16.8154 16.5771 17.0034 15.9881 17.0034 15.3731V10.4971C17.0034 8.42209 16.7824 8.08009 16.0274 8.01609V9.49709C16.0274 9.77409 15.8044 9.99709 15.5274 9.99709C15.2514 9.99709 15.0274 9.77409 15.0274 9.49709V7.57209C14.9694 7.39609 14.7394 6.91909 13.9694 6.92909V9.49709C13.9694 9.77409 13.7454 9.99709 13.4694 9.99709C13.1924 9.99709 12.9694 9.77409 12.9694 9.49709V6.59409C12.8754 6.42809 12.5984 6.04209 12.0844 5.99709V9.49709C12.0844 9.77409 11.8604 9.99709 11.5844 9.99709C11.3074 9.99709 11.0844 9.77409 11.0844 9.49709V6.07309C11.0834 6.06109 11.0774 6.05109 11.0774 6.03909V3.99709C11.0774 3.43909 10.6904 3.01109 10.1774 3.00009C9.63036 3.01209 9.11336 3.48709 9.11336 3.99709V11.1541C9.11336 11.3661 8.98036 11.5541 8.78136 11.6251C8.58536 11.6971 8.36036 11.6341 8.22636 11.4721L6.69936 9.61009C6.52336 9.43409 6.25936 9.31909 5.98736 9.31909H5.98636C5.71436 9.31909 5.45036 9.43409 5.24236 9.64409C4.91436 9.97709 4.92636 10.5351 5.26836 10.8881L6.64836 12.8641C7.26736 13.7531 7.76536 14.7241 8.12736 15.7481C8.45636 16.7521 9.22636 18.2211 9.84536 18.2211C10.1204 18.2211 10.3444 18.4441 10.3454 18.7201L10.3464 19.4971H15.5214V18.8311V18.5601Z" fill="white"/>
<mask id="mask0" mask-type="alpha" maskUnits="userSpaceOnUse" x="17" y="9" width="2" height="2">
<path fill-rule="evenodd" clip-rule="evenodd" d="M18.085 9.88208V10.8821H17.9834V9.88208H18.085V9.88208Z" fill="white"/>
</mask>
<g mask="url(#mask0)">
<path fill-rule="evenodd" clip-rule="evenodd" d="M17.9834 9.88208C17.9884 9.99508 17.9924 10.1091 17.9944 10.2311C17.9924 10.1111 17.9894 9.99208 17.9834 9.88208Z" fill="white"/>
</g>
<mask id="mask1" mask-type="alpha" maskUnits="userSpaceOnUse" x="8" y="21" width="2" height="2">
<path fill-rule="evenodd" clip-rule="evenodd" d="M9.34082 22.4976H8.34082V21.8363H9.34082V22.4976Z" fill="white"/>
</mask>
<g mask="url(#mask1)">
<path fill-rule="evenodd" clip-rule="evenodd" d="M8.34082 21.8363C8.50282 22.0753 8.73182 22.2663 9.00082 22.3793C8.73182 22.2663 8.50282 22.0753 8.34082 21.8363Z" fill="white"/>
</g>
<mask id="mask2" mask-type="alpha" maskUnits="userSpaceOnUse" x="17" y="19" width="2" height="2">
<path fill-rule="evenodd" clip-rule="evenodd" d="M18.085 19.6155V20.6155H17.1685V19.6155H18.085V19.6155Z" fill="white"/>
</mask>
<g mask="url(#mask2)">
<path fill-rule="evenodd" clip-rule="evenodd" d="M17.1685 19.6155C17.3475 19.6915 17.5095 19.8015 17.6455 19.9365C17.5095 19.8015 17.3475 19.6915 17.1685 19.6155Z" fill="white"/>
</g>
<path fill-rule="evenodd" clip-rule="evenodd" d="M9.00082 19.6155C8.73182 19.7295 8.50282 19.9195 8.34082 20.1585C8.50282 19.9195 8.73182 19.7295 9.00082 19.6155Z" fill="white"/>
<path fill-rule="evenodd" clip-rule="evenodd" d="M16.5845 20.4976H16.0005H9.84847H9.58447C9.30847 20.4976 9.08447 20.7216 9.08447 20.9976C9.08447 21.2736 9.30847 21.4976 9.58447 21.4976H16.5845C16.8605 21.4976 17.0845 21.2736 17.0845 20.9976C17.0845 20.7216 16.8605 20.4976 16.5845 20.4976Z" fill="white"/>
<mask id="mask3" mask-type="alpha" maskUnits="userSpaceOnUse" x="17" y="22" width="2" height="1">
<path fill-rule="evenodd" clip-rule="evenodd" d="M18.0852 22.0583V22.4976H17.1685V22.0583H18.0852V22.0583Z" fill="white"/>
</mask>
<g mask="url(#mask3)">
<path fill-rule="evenodd" clip-rule="evenodd" d="M17.6455 22.0583C17.5095 22.1943 17.3485 22.3043 17.1685 22.3793C17.3485 22.3043 17.5095 22.1943 17.6455 22.0583Z" fill="white"/>
</g>
<mask id="mask4" mask-type="alpha" maskUnits="userSpaceOnUse" x="4" y="1" width="15" height="22">
<path fill-rule="evenodd" clip-rule="evenodd" d="M11.0423 22.4976H4V1.9996H11.0423H18.0845V22.4976H11.0423Z" fill="white"/>
</mask>
<g mask="url(#mask4)">
<path fill-rule="evenodd" clip-rule="evenodd" d="M16.5847 21.4976H9.58466C9.30866 21.4976 9.08466 21.2736 9.08466 20.9976C9.08466 20.7216 9.30866 20.4976 9.58466 20.4976H9.84866H16.0007H16.5847C16.8607 20.4976 17.0847 20.7216 17.0847 20.9976C17.0847 21.2736 16.8607 21.4976 16.5847 21.4976ZM10.3477 19.4976L10.3457 18.7196C10.3447 18.4436 10.1207 18.2206 9.84566 18.2206C9.22766 18.2206 8.45666 16.7516 8.12766 15.7486C7.76566 14.7236 7.26866 13.7526 6.64866 12.8646L5.26966 10.8886C4.92666 10.5356 4.91466 9.9766 5.24266 9.6446C5.45066 9.4346 5.71466 9.3186 5.98666 9.3186H5.98766C6.25966 9.3186 6.52366 9.4346 6.69966 9.6106L8.22766 11.4716C8.36066 11.6346 8.58566 11.6976 8.78166 11.6246C8.98066 11.5536 9.11366 11.3656 9.11366 11.1546V3.9976C9.11366 3.4866 9.63066 3.0116 10.1777 2.9996C10.6907 3.0106 11.0777 3.4396 11.0777 3.9976V6.0396C11.0777 6.0516 11.0837 6.0616 11.0847 6.0726V9.4976C11.0847 9.7736 11.3087 9.9976 11.5847 9.9976C11.8607 9.9976 12.0847 9.7736 12.0847 9.4976V5.9966C12.5987 6.0426 12.8757 6.4276 12.9697 6.5946V9.4976C12.9697 9.7736 13.1927 9.9976 13.4697 9.9976C13.7457 9.9976 13.9697 9.7736 13.9697 9.4976V6.9286C14.7397 6.9196 14.9697 7.3966 15.0277 7.5716V9.4976C15.0277 9.7736 15.2517 9.9976 15.5277 9.9976C15.8047 9.9976 16.0277 9.7736 16.0277 9.4976V8.0166C16.7827 8.0806 17.0037 8.4226 17.0037 10.4976V15.3726C17.0037 15.9886 16.8157 16.5776 16.4617 17.0766L15.6137 18.2706C15.5547 18.3556 15.5227 18.4566 15.5227 18.5596V18.8306V19.4976H10.3477ZM17.6457 19.9366C17.5097 19.8016 17.3477 19.6916 17.1687 19.6156C16.9897 19.5396 16.7917 19.4976 16.5847 19.4976H16.5227V18.8306V18.7196L17.2777 17.6556C17.7527 16.9856 18.0037 16.1966 18.0037 15.3726V10.4976C18.0037 10.3986 17.9967 10.3246 17.9947 10.2316C17.9927 10.1096 17.9887 9.9956 17.9837 9.8816C17.8847 7.5416 17.2097 7.0766 15.8747 7.0086C15.5937 6.4556 14.9357 5.8326 13.7357 5.9376C13.5027 5.5976 13.0317 5.1396 12.2877 5.0306C12.2257 5.0026 12.1577 4.9856 12.0847 4.9856H12.0777V3.9976C12.0777 2.8986 11.2527 2.0216 10.1777 1.9996C9.05966 2.0226 8.11366 2.9376 8.11366 3.9976V9.7586L7.44166 8.9416C7.04666 8.5396 6.52966 8.3186 5.98766 8.3186H5.98666C5.44566 8.3186 4.92866 8.5396 4.53166 8.9416C3.82366 9.6586 3.83266 10.8436 4.49966 11.5216L5.82866 13.4346C6.39666 14.2506 6.85266 15.1416 7.18066 16.0706C7.33366 16.5376 8.08966 18.6596 9.34666 19.1286L9.34766 19.5216C9.22666 19.5406 9.10966 19.5696 9.00066 19.6156C8.73166 19.7296 8.50266 19.9196 8.34066 20.1586C8.17866 20.3986 8.08466 20.6866 8.08466 20.9976C8.08466 21.3086 8.17866 21.5966 8.34066 21.8366C8.50266 22.0756 8.73166 22.2656 9.00066 22.3796C9.18066 22.4556 9.37766 22.4976 9.58466 22.4976H16.5847C16.7917 22.4976 16.9897 22.4556 17.1687 22.3796C17.3477 22.3036 17.5097 22.1936 17.6457 22.0586C17.9167 21.7866 18.0847 21.4116 18.0847 20.9976C18.0847 20.5836 17.9167 20.2086 17.6457 19.9366Z" fill="black"/>
</g>
</g>
<defs>
<filter id="filter0_d" x="1" y="-0.000396729" width="20.0845" height="26.498" filterUnits="userSpaceOnUse" color-interpolation-filters="sRGB">
<feFlood flood-opacity="0" result="BackgroundImageFix"/>
<feColorMatrix in="SourceAlpha" type="matrix" values="0 0 0 0 0 0 0 0 0 0 0 0 0 0 0 0 0 0 127 0"/>
<feOffset dy="1"/>
<feGaussianBlur stdDeviation="1.5"/>
<feColorMatrix type="matrix" values="0 0 0 0 0 0 0 0 0 0 0 0 0 0 0 0 0 0 0.2 0"/>
<feBlend mode="normal" in2="BackgroundImageFix" result="effect1_dropShadow"/>
<feBlend mode="normal" in="SourceGraphic" in2="effect1_dropShadow" result="shape"/>
</filter>
</defs>
</svg>
