<svg width="29" height="39" viewBox="0 0 29 39" fill="none" xmlns="http://www.w3.org/2000/svg">
<circle opacity="0.4" cx="14.5" cy="14.5" r="9.5" fill="#330066"/>
<circle opacity="0.4" cx="14.5" cy="14.5" r="5.5" fill="#330066"/>
<g filter="url(#filter0_d)">
<path fill-rule="evenodd" clip-rule="evenodd" d="M19.0266 25.0881C19.0276 25.0861 19.0296 25.0831 19.0306 25.0811L19.0526 25.1631L19.0266 25.0881ZM20.5216 30.5601C20.5216 30.4561 20.5546 30.3551 20.6136 30.2701L21.4616 29.0761C21.8156 28.5771 22.0036 27.9881 22.0036 27.3731V22.4971C22.0036 20.4221 21.7826 20.0801 21.0276 20.0161V21.4971C21.0276 21.7741 20.8046 21.9971 20.5276 21.9971C20.2516 21.9971 20.0276 21.7741 20.0276 21.4971V19.5721C19.9696 19.3961 19.7396 18.9191 18.9696 18.9291V21.4971C18.9696 21.7741 18.7456 21.9971 18.4696 21.9971C18.1926 21.9971 17.9696 21.7741 17.9696 21.4971V18.5941C17.8756 18.4281 17.5986 18.0421 17.0846 17.9971V21.4971C17.0846 21.7741 16.8606 21.9971 16.5846 21.9971C16.3076 21.9971 16.0846 21.7741 16.0846 21.4971V18.0731C16.0836 18.0611 16.0776 18.0511 16.0776 18.0391V15.9971C16.0776 15.4391 15.6906 15.0111 15.1776 15.0001C14.6306 15.0121 14.1136 15.4871 14.1136 15.9971V23.1541C14.1136 23.3661 13.9806 23.5541 13.7816 23.6251C13.5856 23.6971 13.3606 23.6341 13.2266 23.4721L11.6996 21.6101C11.5236 21.4341 11.2596 21.3191 10.9876 21.3191H10.9866C10.7146 21.3191 10.4506 21.4341 10.2426 21.6441C9.9146 21.9771 9.9266 22.5351 10.2686 22.8881L11.6486 24.8641C12.2676 25.7531 12.7656 26.7241 13.1276 27.7481C13.4566 28.7521 14.2266 30.2211 14.8456 30.2211C15.1206 30.2211 15.3446 30.4441 15.3456 30.7201L15.3466 31.4971H20.5216V30.8311V30.5601Z" fill="white"/>
<mask id="mask0" mask-type="alpha" maskUnits="userSpaceOnUse" x="22" y="21" width="2" height="2">
<path fill-rule="evenodd" clip-rule="evenodd" d="M23.085 21.8821V22.8821H22.9834V21.8821H23.085V21.8821Z" fill="white"/>
</mask>
<g mask="url(#mask0)">
<path fill-rule="evenodd" clip-rule="evenodd" d="M22.9834 21.8821C22.9884 21.9951 22.9924 22.1091 22.9944 22.2311C22.9924 22.1111 22.9894 21.9921 22.9834 21.8821Z" fill="white"/>
</g>
<mask id="mask1" mask-type="alpha" maskUnits="userSpaceOnUse" x="13" y="33" width="2" height="2">
<path fill-rule="evenodd" clip-rule="evenodd" d="M14.3407 34.4976H13.3407V33.8363H14.3407V34.4976Z" fill="white"/>
</mask>
<g mask="url(#mask1)">
<path fill-rule="evenodd" clip-rule="evenodd" d="M13.3407 33.8363C13.5027 34.0753 13.7317 34.2663 14.0007 34.3793C13.7317 34.2663 13.5027 34.0753 13.3407 33.8363Z" fill="white"/>
</g>
<mask id="mask2" mask-type="alpha" maskUnits="userSpaceOnUse" x="22" y="31" width="2" height="2">
<path fill-rule="evenodd" clip-rule="evenodd" d="M23.085 31.6155V32.6155H22.1685V31.6155H23.085V31.6155Z" fill="white"/>
</mask>
<g mask="url(#mask2)">
<path fill-rule="evenodd" clip-rule="evenodd" d="M22.1685 31.6155C22.3475 31.6915 22.5095 31.8015 22.6455 31.9365C22.5095 31.8015 22.3475 31.6915 22.1685 31.6155Z" fill="white"/>
</g>
<path fill-rule="evenodd" clip-rule="evenodd" d="M14.0008 31.6155C13.7318 31.7295 13.5028 31.9195 13.3408 32.1585C13.5028 31.9195 13.7318 31.7295 14.0008 31.6155Z" fill="white"/>
<path fill-rule="evenodd" clip-rule="evenodd" d="M21.5845 32.4976H21.0005H14.8485H14.5845C14.3085 32.4976 14.0845 32.7216 14.0845 32.9976C14.0845 33.2736 14.3085 33.4976 14.5845 33.4976H21.5845C21.8605 33.4976 22.0845 33.2736 22.0845 32.9976C22.0845 32.7216 21.8605 32.4976 21.5845 32.4976Z" fill="white"/>
<mask id="mask3" mask-type="alpha" maskUnits="userSpaceOnUse" x="22" y="34" width="2" height="1">
<path fill-rule="evenodd" clip-rule="evenodd" d="M23.085 34.0583V34.4976H22.1683V34.0583H23.085V34.0583Z" fill="white"/>
</mask>
<g mask="url(#mask3)">
<path fill-rule="evenodd" clip-rule="evenodd" d="M22.6453 34.0583C22.5093 34.1943 22.3483 34.3043 22.1683 34.3793C22.3483 34.3043 22.5093 34.1943 22.6453 34.0583Z" fill="white"/>
</g>
<mask id="mask4" mask-type="alpha" maskUnits="userSpaceOnUse" x="9" y="13" width="15" height="22">
<path fill-rule="evenodd" clip-rule="evenodd" d="M16.0423 34.4976H9V13.9996H16.0423H23.0845V34.4976H16.0423Z" fill="white"/>
</mask>
<g mask="url(#mask4)">
<path fill-rule="evenodd" clip-rule="evenodd" d="M21.5845 33.4976H14.5845C14.3085 33.4976 14.0845 33.2736 14.0845 32.9976C14.0845 32.7216 14.3085 32.4976 14.5845 32.4976H14.8485H21.0005H21.5845C21.8605 32.4976 22.0845 32.7216 22.0845 32.9976C22.0845 33.2736 21.8605 33.4976 21.5845 33.4976ZM15.3475 31.4976L15.3455 30.7196C15.3445 30.4436 15.1205 30.2206 14.8455 30.2206C14.2275 30.2206 13.4565 28.7516 13.1275 27.7486C12.7655 26.7236 12.2685 25.7526 11.6485 24.8646L10.2695 22.8886C9.92649 22.5356 9.91449 21.9766 10.2425 21.6446C10.4505 21.4346 10.7145 21.3186 10.9865 21.3186H10.9875C11.2595 21.3186 11.5235 21.4346 11.6995 21.6106L13.2275 23.4716C13.3605 23.6346 13.5855 23.6976 13.7815 23.6246C13.9805 23.5536 14.1135 23.3656 14.1135 23.1546V15.9976C14.1135 15.4866 14.6305 15.0116 15.1775 14.9996C15.6905 15.0106 16.0775 15.4396 16.0775 15.9976V18.0396C16.0775 18.0516 16.0835 18.0616 16.0845 18.0726V21.4976C16.0845 21.7736 16.3085 21.9976 16.5845 21.9976C16.8605 21.9976 17.0845 21.7736 17.0845 21.4976V17.9966C17.5985 18.0426 17.8755 18.4276 17.9695 18.5946V21.4976C17.9695 21.7736 18.1925 21.9976 18.4695 21.9976C18.7455 21.9976 18.9695 21.7736 18.9695 21.4976V18.9286C19.7395 18.9196 19.9695 19.3966 20.0275 19.5716V21.4976C20.0275 21.7736 20.2515 21.9976 20.5275 21.9976C20.8045 21.9976 21.0275 21.7736 21.0275 21.4976V20.0166C21.7825 20.0806 22.0035 20.4226 22.0035 22.4976V27.3726C22.0035 27.9886 21.8155 28.5776 21.4615 29.0766L20.6135 30.2706C20.5545 30.3556 20.5225 30.4566 20.5225 30.5596V30.8306V31.4976H15.3475ZM22.6455 31.9366C22.5095 31.8016 22.3475 31.6916 22.1685 31.6156C21.9895 31.5396 21.7915 31.4976 21.5845 31.4976H21.5225V30.8306V30.7196L22.2775 29.6556C22.7525 28.9856 23.0035 28.1966 23.0035 27.3726V22.4976C23.0035 22.3986 22.9965 22.3246 22.9945 22.2316C22.9925 22.1096 22.9885 21.9956 22.9835 21.8816C22.8845 19.5416 22.2095 19.0766 20.8745 19.0086C20.5935 18.4556 19.9355 17.8326 18.7355 17.9376C18.5025 17.5976 18.0315 17.1396 17.2875 17.0306C17.2255 17.0026 17.1575 16.9856 17.0845 16.9856H17.0775V15.9976C17.0775 14.8986 16.2525 14.0216 15.1775 13.9996C14.0595 14.0226 13.1135 14.9376 13.1135 15.9976V21.7586L12.4415 20.9416C12.0465 20.5396 11.5295 20.3186 10.9875 20.3186H10.9865C10.4455 20.3186 9.92849 20.5396 9.53149 20.9416C8.82349 21.6586 8.83249 22.8436 9.49949 23.5216L10.8285 25.4346C11.3965 26.2506 11.8525 27.1416 12.1805 28.0706C12.3335 28.5376 13.0895 30.6596 14.3465 31.1286L14.3475 31.5216C14.2265 31.5406 14.1095 31.5696 14.0005 31.6156C13.7315 31.7296 13.5025 31.9196 13.3405 32.1586C13.1785 32.3986 13.0845 32.6866 13.0845 32.9976C13.0845 33.3086 13.1785 33.5966 13.3405 33.8366C13.5025 34.0756 13.7315 34.2656 14.0005 34.3796C14.1805 34.4556 14.3775 34.4976 14.5845 34.4976H21.5845C21.7915 34.4976 21.9895 34.4556 22.1685 34.3796C22.3475 34.3036 22.5095 34.1936 22.6455 34.0586C22.9165 33.7866 23.0845 33.4116 23.0845 32.9976C23.0845 32.5836 22.9165 32.2086 22.6455 31.9366Z" fill="black"/>
</g>
</g>
<defs>
<filter id="filter0_d" x="6" y="11.9996" width="20.0845" height="26.498" filterUnits="userSpaceOnUse" color-interpolation-filters="sRGB">
<feFlood flood-opacity="0" result="BackgroundImageFix"/>
<feColorMatrix in="SourceAlpha" type="matrix" values="0 0 0 0 0 0 0 0 0 0 0 0 0 0 0 0 0 0 127 0"/>
<feOffset dy="1"/>
<feGaussianBlur stdDeviation="1.5"/>
<feColorMatrix type="matrix" values="0 0 0 0 0 0 0 0 0 0 0 0 0 0 0 0 0 0 0.2 0"/>
<feBlend mode="normal" in2="BackgroundImageFix" result="effect1_dropShadow"/>
<feBlend mode="normal" in="SourceGraphic" in2="effect1_dropShadow" result="shape"/>
</filter>
</defs>
</svg>


